<svg xmlns="http://www.w3.org/2000/svg" version="1.1" xmlns:xlink="http://www.w3.org/1999/xlink" xmlns:svgjs="http://svgjs.dev/svgjs" width="128" height="128" viewBox="0 0 128 128"><g transform="matrix(0.8046875,0,0,0.8046875,12.333870967741937,22.2592448260056)"><svg viewBox="0 0 155 127" data-background-color="#ffffff" preserveAspectRatio="xMidYMid meet" height="104" width="128" xmlns="http://www.w3.org/2000/svg" xmlns:xlink="http://www.w3.org/1999/xlink"><g id="tight-bounds" transform="matrix(1,0,0,1,0.25,-0.15629984051036416)"><svg viewBox="0 0 154.5 127.31259968102073" height="127.31259968102073" width="154.5"><g><svg viewBox="0 0 154.5 127.31259968102073" height="127.31259968102073" width="154.5"><g><svg viewBox="0 0 154.5 127.31259968102073" height="127.31259968102073" width="154.5"><g id="textblocktransform"><svg viewBox="0 0 154.5 127.31259968102073" height="127.31259968102073" width="154.5" id="textblock"><g><svg viewBox="0 0 154.5 127.31259968102073" height="127.31259968102073" width="154.5"><g transform="matrix(1,0,0,1,0,0)"><svg width="154.5" viewBox="-0.42 -37.35 45.93 37.84" height="127.31259968102073" data-palette-color="#77d4fc"><path d="M-0.42-1.25L0.78-4.44Q0.78-4.44 1.34-4.17L1.34-4.17Q4-2.91 6.98-2.91L6.98-2.91Q9.57-2.91 10.64-4.52L10.64-4.52Q11.67-6.08 11.67-9.86L11.67-9.86 11.67-37.35 15.77-37.35 15.77-12.6Q15.77-8.03 15.39-6.15 15.01-4.27 14.44-3.13 13.87-1.98 12.89-1.17L12.89-1.17Q10.89 0.49 6.98 0.49L6.98 0.49Q3.61 0.49 0.66-0.73L0.66-0.73Q-0.05-1.03-0.42-1.25L-0.42-1.25ZM26.56 0L26.56-37.35 30.71-37.35 30.71-3.59 45.51-3.59 45.51 0 26.56 0Z" opacity="1" transform="matrix(1,0,0,1,0,0)" fill="#77d4fc" class="wordmark-text-0" data-fill-palette-color="primary" id="text-0"></path></svg></g></svg></g></svg></g></svg></g><g></g></svg></g><defs></defs></svg><rect width="154.5" height="127.31259968102073" fill="none" stroke="none" visibility="hidden"></rect></g></svg></g></svg>