<svg xmlns="http://www.w3.org/2000/svg" version="1.1" xmlns:xlink="http://www.w3.org/1999/xlink" xmlns:svgjs="http://svgjs.dev/svgjs" width="1000" height="229" viewBox="0 0 1000 229"><g transform="matrix(1,0,0,1,-0.6056348047761162,-0.3474185506211285)"><svg viewBox="0 0 396 91" data-background-color="#ffffff" preserveAspectRatio="xMidYMid meet" height="229" width="1000" xmlns="http://www.w3.org/2000/svg" xmlns:xlink="http://www.w3.org/1999/xlink"><g id="tight-bounds" transform="matrix(1,0,0,1,0.24008861730862918,0.13828138873651596)"><svg viewBox="0 0 395.52 90.72358535391652" height="90.72358535391652" width="395.52"><g><svg viewBox="0 0 395.52 90.72358535391652" height="90.72358535391652" width="395.52"><g><svg viewBox="0 0 395.52 90.72358535391652" height="90.72358535391652" width="395.52"><g id="textblocktransform"><svg viewBox="0 0 395.52 90.72358535391652" height="90.72358535391652" width="395.52" id="textblock"><g><svg viewBox="0 0 395.52 90.72358535391652" height="90.72358535391652" width="395.52"><path d="M394.594 19.458C392.735 10.041 387.435 7.423 387.435 7.423 371.165-2.276 350.86-0.186 332.619 1.208 300.414 1.265 268.339 3.336 236.208 4.448 168.767 4.617 100.749 1.83 33.643 8.704 27.339 10.814-6.54 9.119 1.121 20.664 3.129 25.467 10.456 30.797 10.232 35.204 11.236 35.976 12.631 34.206 13.226 35.317 15.309 38.311 18.711 36.899 21.501 38.669 17.614 43.397 20.403 47.333 23.062 51.458 18.377 52.531 12.371 52.023 9.675 55.582 9.396 58.163 7.89 57.673 6.235 57.56 5.026 57.485 2.59 57.767 2.999 58.577 4.394 61.346-1.594 62.947 2.162 65.659-0.422 68.597 3.948 71.139 3.353 74.322 3.278 74.963 3.687 75.509 4.338 75.66 7.22 76.469 3.018 78.052 3.464 79.765 33.029 91.48 65.104 83.382 95.394 88.768 103.259 85.001 97.346 90.105 100.489 89.314 102.943 88.391 104.728 92.215 107.499 90.049 107.927 89.427 107.276 87.958 108.8 88.241 109.6 88.391 110.307 88.354 110.418 87.487 110.586 86.188 109.117 86.998 108.726 86.32 112.947 82.892 111.906 91.047 115.866 90.708 115.68 89.71 114.528 88.278 116.889 88.467 119.232 87.035 119.306 85.849 121.389 89.07 121.463 89.766 121.835 90.256 122.43 90.595 128.938 87.092 135.409 91.838 142.233 90.256 146.417 88.523 150.433 91.198 154.672 90.539 156.16 90.011 157.666 89.07 159.098 90.652 176.632 90.991 195.319 89.578 211.943 90.708 256.364 88.599 303.836 91.574 350.674 88.787 361.719 87.713 373.192 86.188 383.958 84.964 383.958 84.964 392.679 81.611 392.679 66.544S394.538 53.36 394.817 41.363C395.096 29.365 396.398 28.876 394.538 19.458Z" opacity="1" fill="#5c5cd6" data-fill-palette-color="tertiary"></path><g transform="matrix(1,0,0,1,55.76832,26.230666666666668)"><svg width="283.98335999999995" viewBox="-0.42 -37.87 284.65000000000003 38.36" height="38.26225202058318" data-palette-color="#ffffff"><path d="M-0.42-1.25L0.78-4.44Q0.78-4.44 1.34-4.17L1.34-4.17Q4-2.91 6.98-2.91L6.98-2.91Q9.57-2.91 10.64-4.52L10.64-4.52Q11.67-6.08 11.67-9.86L11.67-9.86 11.67-37.35 15.77-37.35 15.77-12.6Q15.77-8.03 15.39-6.15 15.01-4.27 14.44-3.13 13.87-1.98 12.89-1.17L12.89-1.17Q10.89 0.49 6.98 0.49L6.98 0.49Q3.61 0.49 0.66-0.73L0.66-0.73Q-0.05-1.03-0.42-1.25L-0.42-1.25ZM40.38 0.49L38.86 0.49Q30.17 0.49 27.39-4.98L27.39-4.98Q25.75-8.15 25.46-13.45L25.46-13.45Q25.34-15.94 25.34-18.87 25.34-21.8 25.51-24.43 25.68-27.05 26.18-29.17 26.68-31.3 27.6-32.92 28.51-34.55 30-35.64L30-35.64Q33.08-37.84 38.86-37.84L38.86-37.84 40.38-37.84Q49.44-37.84 51.98-32.96L51.98-32.96Q53.56-29.91 53.76-24.46L53.76-24.46Q53.85-21.8 53.85-18.84 53.85-15.87 53.71-13.37 53.56-10.86 53.1-8.74 52.63-6.62 51.74-4.91 50.85-3.2 49.34-2L49.34-2Q46.21 0.49 40.38 0.49L40.38 0.49ZM38.86-3.03L40.33-3.03Q43.02-3.03 44.79-3.61 46.56-4.2 47.58-5.66L47.58-5.66Q49.48-8.37 49.48-16.06L49.48-16.06 49.48-18.7Q49.48-22.39 49.29-25.27 49.09-28.15 48.24-30.13L48.24-30.13Q46.48-34.23 40.62-34.23L40.62-34.23 38.57-34.23Q32.61-34.23 30.95-30.4L30.95-30.4Q29.9-27.95 29.81-24.63 29.71-21.31 29.71-18.7L29.71-18.7 29.71-16.06Q29.71-8.86 31.86-5.91L31.86-5.91Q33.93-3.03 38.86-3.03L38.86-3.03ZM86.84-27.78L86.84-27.78Q86.84-20.26 81.15-19.51L81.15-19.51 81.15-19.43Q84.66-19.17 86.4-17.43L86.4-17.43Q88.4-15.38 88.4-11.49 88.4-7.59 87.51-5.44 86.62-3.3 85.03-2.1L85.03-2.1Q82.32 0 76.51 0L76.51 0 64.03 0 64.03-37.23Q70.8-37.87 75.19-37.87 79.58-37.87 81.64-37.19 83.69-36.52 84.83-35.25L84.83-35.25Q86.84-33.03 86.84-27.78ZM68.18-20.68L73.68-20.68Q78.58-20.68 80.49-22.07L80.49-22.07Q82.66-23.63 82.66-27.88L82.66-27.88 82.66-28.39Q82.66-31.67 81.22-33.06L81.22-33.06Q79.78-34.42 76.31-34.42L76.31-34.42Q73.41-34.42 71.38-34.3L71.38-34.3 68.18-34.11 68.18-20.68ZM68.18-3.47L77.02-3.47Q80.61-3.47 82.15-4.83L82.15-4.83Q84.08-6.57 84.08-11.04L84.08-11.04Q84.08-16.21 80.29-17.09L80.29-17.09Q79.15-17.36 77.8-17.36L77.8-17.36 68.18-17.36 68.18-3.47ZM109.78 0L109.78-37.35 113.93-37.35 113.93-3.59 128.73-3.59 128.73 0 109.78 0ZM135.36 0L135.36-37.35 139.49-37.35 139.49 0 135.36 0ZM147.84-2.47L149.45-5.88Q154.99-2.95 160.29-2.95L160.29-2.95Q166.44-2.95 167.49-6.88L167.49-6.88Q167.83-8.18 167.83-9.86L167.83-9.86 167.83-10.82Q167.83-12.52 167.59-13.57 167.34-14.62 166.56-15.28L166.56-15.28Q165.29-16.38 160.56-17.11L160.56-17.11Q156.33-17.77 154.72-18.36 153.11-18.95 152.07-19.64 151.03-20.34 150.3-21.39L150.3-21.39Q148.79-23.58 148.79-27.47L148.79-27.47 148.79-27.71Q148.79-35.77 155.48-37.35L155.48-37.35Q157.6-37.84 160.29-37.84L160.29-37.84 160.61-37.84Q166.88-37.84 170.86-36.04L170.86-36.04 169.59-32.3Q164.78-34.38 160.73-34.38L160.73-34.38 160.51-34.38Q156.04-34.38 154.36-32.69L154.36-32.69Q152.94-31.27 152.94-27.78L152.94-27.78 152.94-27.69Q152.94-23.71 155.14-22.46L155.14-22.46Q156.63-21.66 160.47-21.04 164.32-20.43 166.2-20.01 168.08-19.58 169.39-18.6L169.39-18.6Q172.13-16.55 172.13-10.82L172.13-10.82 172.13-10.5Q172.13-1.73 165.07-0.05L165.07-0.05Q162.9 0.49 160.97 0.49 159.04 0.49 157.47 0.35 155.89 0.22 154.26-0.12L154.26-0.12Q150.42-0.9 147.84-2.47L147.84-2.47ZM185.16 0L185.16-33.74 175.2-33.74 175.2-37.35 199.62-37.35 199.62-33.74 189.31-33.74 189.31 0 185.16 0ZM206.18 0L206.18-37.35 210.31-37.35 210.31 0 206.18 0ZM222.34 0L222.34-37.35 225.64-37.35 242.82-10.21 245.05-5.59 244.51-10.72 244.51-37.35 248.29-37.35 248.29 0 244.8 0 227.74-27.08 225.59-31.27 226.12-26.29 226.12 0 222.34 0ZM283.5-36.06L282.52-32.28Q276.64-34.33 271.22-34.33L271.22-34.33Q265.62-34.33 263.94-29.74L263.94-29.74Q262.94-27.03 262.83-23.57 262.72-20.12 262.72-17.6L262.72-17.6 262.72-15.19Q262.72-7.4 265.33-4.86L265.33-4.86Q266.89-3.34 269.51-3.08L269.51-3.08Q270.73-2.93 272.02-2.93 273.31-2.93 274.52-3.06 275.73-3.2 276.83-3.42L276.83-3.42Q279.05-3.86 280.15-4.39L280.15-4.39 280.15-15.92 272.61-15.92 272.61-19.29 284.23-19.29 284.23-2.56Q281.93-0.83 276.1 0.15L276.1 0.15Q274.07 0.49 271.48 0.49 268.9 0.49 266.74-0.04 264.57-0.56 263.07-1.57 261.57-2.59 260.64-4.1 259.72-5.62 259.2-7.59L259.2-7.59Q258.37-10.91 258.37-15.78 258.37-20.65 258.54-23.47 258.72-26.29 259.22-28.58 259.72-30.86 260.62-32.59 261.52-34.33 262.99-35.5L262.99-35.5Q265.97-37.84 271.48-37.84L271.48-37.84Q277.78-37.84 282.25-36.45L282.25-36.45 283.5-36.06Z" opacity="1" transform="matrix(1,0,0,1,0,0)" fill="#ffffff" class="wordmark-text-0" data-fill-palette-color="quaternary" id="text-0"></path></svg></g></svg></g></svg></g></svg></g><g></g></svg></g><defs></defs></svg><rect width="395.52" height="90.72358535391652" fill="none" stroke="none" visibility="hidden"></rect></g></svg></g></svg>